<svg width="50" height="50" viewBox="0 0 50 50" fill="none" xmlns="http://www.w3.org/2000/svg">
<path d="M25.3604 1.10401C22.1688 1.51029 11.9122 3.93347 7.47966 9.74053C2.6565 19.6185 2.92484 25.6559 5.84887 34.2861L10.8459 33.8161C10.8063 32.7903 10.841 31.837 10.9241 30.7365L15.557 31.1174C14.6159 26.144 14.2902 16.0864 17.5302 12.0753C15.505 18.3979 15.5251 22.8904 17.414 29.8224C19.0858 29.5177 23.2891 29.0911 24.1229 29.8224C23.2761 22.6618 23.3923 15.2252 25.4766 9.74053C25.8892 14.0064 25.5558 20.4527 30.3106 26.8515C29.4639 24.4647 28.8647 19.112 28.552 14.968C30.3026 23.5759 32.5763 23.9242 34.856 26.6665C34.4 30.2468 33.1766 34.3929 31.5482 39.3444C34.7398 38.1256 35.326 38.9635 36.303 36.5259C36.3247 37.7955 36.4333 38.2779 36.4333 38.2779C38.3091 37.7294 38.9084 37.3638 40.4065 37.3638C40.4438 38.7547 40.2008 39.7037 39.9505 40.6394C39.4294 42.6199 36.8892 45.8193 36.8892 45.8193C40.2762 43.4426 45.5521 39.9538 45.0961 33.4788C46.985 39.3444 42.9467 46.3526 42.9467 46.3526C46.1383 43.1532 48.2877 35.9165 48.9391 29.8224C49.1345 23.9568 48.431 18.8835 46.3988 14.1301C43.9889 8.4931 42.9467 7.35045 39.234 4.37958C34.7333 0.778091 29.0297 0.850093 25.3604 1.10401Z" fill="#275EA7"/>
<path d="M11.0069 35.6743C9.33548 35.7825 7.82832 36.0223 6.37556 36.2019C6.37556 36.2019 6.7868 37.66 7.13841 38.8357C9.09585 38.823 9.73764 38.673 11.5465 38.2967C11.2953 37.4551 11.1172 36.6542 11.0069 35.6743Z" fill="#275EA7"/>
<path d="M7.66511 40.8116C8.59487 44.5233 9.12536 46.48 9.89918 48.9099C12.1119 49.2395 14.5802 48.5825 16.4397 48.257C15.6972 46.5108 15.1653 45.7536 14.6159 43.9911L14.4102 42.3914C13.6152 41.838 12.8543 41.1794 12.3545 40.2261C10.3492 40.5977 9.72712 40.7508 7.66511 40.8116Z" fill="#275EA7"/>
<path d="M14.6455 43.9911C15.8831 44.9814 21.4299 47.5561 22.2636 47.4952C21.8728 47.0889 20.9609 44.829 20.9609 44.2196C21.8728 44.956 25.4031 47.6476 28.0605 47.3429C27.4743 46.5811 26.4973 44.2196 26.4973 44.2196C26.7579 44.5751 31.2521 46.4287 32.6199 46.3526C32.6199 46.3526 36.1372 40.3347 39.9801 40.6394C40.2304 39.7037 40.4735 38.7547 40.4361 37.3638C38.938 37.3638 38.3387 37.7294 36.4629 38.2779C36.4629 38.2779 36.3543 37.7955 36.3326 36.5259C35.3556 38.9635 34.7694 38.1256 31.5778 39.3444C33.2062 34.3929 34.4297 30.2468 34.8856 26.6665C32.6059 23.9242 30.3322 23.5759 28.5816 14.968C28.8943 19.112 29.4935 24.4647 30.3402 26.8515C25.5854 20.4527 25.9188 14.0064 25.5063 9.74053C23.422 15.2252 23.3057 22.6618 24.1525 29.8224C23.3188 29.0911 19.1154 29.5177 17.4436 29.8224C15.5547 22.8904 15.5346 18.3979 17.5599 12.0753C14.3198 16.0864 14.6455 26.144 15.5866 31.1174L10.9537 30.7365C10.8706 31.837 10.8359 32.7903 10.8755 33.8161C10.8966 34.3638 11.0365 35.6743 11.0365 35.6743C11.1468 36.6542 11.3249 37.4551 11.5761 38.2967C11.7736 38.9584 12.0938 39.6724 12.3841 40.2261C12.8839 41.1794 13.6448 41.838 14.4398 42.3914L14.6455 43.9911Z" fill="black"/>
<path d="M10.8755 33.8161L5.87847 34.2861C5.87847 34.2861 6.27674 35.6743 6.40517 36.2019C7.85793 36.0223 9.36509 35.7825 11.0365 35.6743C11.0365 35.6743 10.8966 34.3638 10.8755 33.8161Z" fill="black"/>
<path d="M11.5761 38.2967C9.76725 38.673 9.12546 38.823 7.16802 38.8357C7.33676 39.4 7.56305 40.286 7.69471 40.8116C9.75673 40.7508 10.3788 40.5977 12.3841 40.2261C12.0938 39.6724 11.7736 38.9584 11.5761 38.2967Z" fill="black"/>
<path d="M7.47966 9.74053C11.9122 3.93347 22.1688 1.51029 25.3604 1.10401C29.0297 0.850093 34.7333 0.778091 39.234 4.37958C42.9467 7.35045 43.9889 8.4931 46.3988 14.1301C48.431 18.8835 49.1345 23.9568 48.9391 29.8224C48.2877 35.9165 46.1383 43.1532 42.9467 46.3526C42.9467 46.3526 46.985 39.3444 45.0961 33.4788C45.5521 39.9538 40.2762 43.4426 36.8892 45.8193C36.8892 45.8193 39.4294 42.6199 39.9505 40.6394M7.47966 9.74053C-0.888224 16.5055 0.446992 25.3059 2.71461 28.838M7.47966 9.74053C2.6565 19.6185 2.92484 25.6559 5.84887 34.2861M7.66511 40.8116C8.59487 44.5233 9.12536 46.48 9.89918 48.9099C12.1119 49.2395 14.5802 48.5825 16.4397 48.257C15.6972 46.5108 15.1653 45.7536 14.6159 43.9911M7.66511 40.8116C7.53345 40.286 7.30715 39.4 7.13841 38.8357M7.66511 40.8116C9.72712 40.7508 10.3492 40.5977 12.3545 40.2261M14.6159 43.9911C15.8535 44.9814 21.4003 47.5561 22.234 47.4952C21.8432 47.0889 20.9313 44.829 20.9313 44.2196C21.8432 44.956 25.3734 47.6476 28.0309 47.3429C27.4447 46.5811 26.4677 44.2196 26.4677 44.2196C26.7282 44.5751 31.2225 46.4287 32.5903 46.3526C32.5903 46.3526 36.1076 40.3347 39.9505 40.6394M14.6159 43.9911L14.4102 42.3914C13.6152 41.838 12.8543 41.1794 12.3545 40.2261M39.9505 40.6394C40.2008 39.7037 40.4438 38.7547 40.4065 37.3638C38.9084 37.3638 38.3091 37.7294 36.4333 38.2779C36.4333 38.2779 36.3247 37.7955 36.303 36.5259C35.326 38.9635 34.7398 38.1256 31.5482 39.3444C33.1766 34.3929 34.4 30.2468 34.856 26.6665M10.9241 30.7365C10.3379 30.7365 9.94706 30.8888 9.36085 31.1174M10.9241 30.7365L15.557 31.1174C14.6159 26.144 14.2902 16.0864 17.5302 12.0753C15.505 18.3979 15.5251 22.8904 17.414 29.8224C19.0858 29.5177 23.2891 29.0911 24.1229 29.8224C23.2761 22.6618 23.3923 15.2252 25.4766 9.74053C25.8892 14.0064 25.5558 20.4527 30.3106 26.8515C29.4639 24.4647 28.8647 19.112 28.552 14.968C30.3026 23.5759 32.5763 23.9242 34.856 26.6665M10.9241 30.7365C10.841 31.837 10.8063 32.7903 10.8459 33.8161M34.856 26.6665C35.0514 23.4671 35.1837 16.1869 33.5163 11.3116M5.84887 34.2861L10.8459 33.8161M5.84887 34.2861C5.84887 34.2861 6.24713 35.6743 6.37556 36.2019M10.8459 33.8161C10.867 34.3638 11.0069 35.6743 11.0069 35.6743M6.37556 36.2019C7.82832 36.0223 9.33548 35.7825 11.0069 35.6743M6.37556 36.2019C6.37556 36.2019 6.7868 37.66 7.13841 38.8357M11.0069 35.6743C11.1172 36.6542 11.2953 37.4551 11.5465 38.2967M7.13841 38.8357C9.09585 38.823 9.73764 38.673 11.5465 38.2967M11.5465 38.2967C11.744 38.9584 12.0642 39.6724 12.3545 40.2261M7.50926 9.74053C11.9418 3.93347 22.1984 1.51029 25.39 1.10401C29.0593 0.850093 34.7629 0.778091 39.2636 4.37958C42.9763 7.35045 44.0185 8.4931 46.4284 14.1301C48.4606 18.8835 49.1641 23.9568 48.9687 29.8224C48.3173 35.9165 46.1679 43.1532 42.9763 46.3526C42.9763 46.3526 47.0146 39.3444 45.1257 33.4788C45.5817 39.9538 40.3058 43.4426 36.9188 45.8193C36.9188 45.8193 39.4591 42.6199 39.9801 40.6394M7.50926 9.74053C-0.858616 16.5055 0.4766 25.3059 2.74422 28.838M7.50926 9.74053C2.68611 19.6185 2.95444 25.6559 5.87847 34.2861M7.69471 40.8116C8.62448 44.5233 9.15497 46.48 9.92879 48.9099C12.1415 49.2395 14.6098 48.5825 16.4693 48.257C15.7268 46.5108 15.1949 45.7536 14.6455 43.9911M7.69471 40.8116C7.56305 40.286 7.33676 39.4 7.16802 38.8357M7.69471 40.8116C9.75673 40.7508 10.3788 40.5977 12.3841 40.2261M14.6455 43.9911C15.8831 44.9814 21.4299 47.5561 22.2636 47.4952C21.8728 47.0889 20.9609 44.829 20.9609 44.2196C21.8728 44.956 25.4031 47.6476 28.0605 47.3429C27.4743 46.5811 26.4973 44.2196 26.4973 44.2196C26.7579 44.5751 31.2521 46.4287 32.6199 46.3526C32.6199 46.3526 36.1372 40.3347 39.9801 40.6394M14.6455 43.9911L14.4398 42.3914C13.6448 41.838 12.8839 41.1794 12.3841 40.2261M39.9801 40.6394C40.2304 39.7037 40.4735 38.7547 40.4361 37.3638C38.938 37.3638 38.3387 37.7294 36.4629 38.2779C36.4629 38.2779 36.3543 37.7955 36.3326 36.5259C35.3556 38.9635 34.7694 38.1256 31.5778 39.3444C33.2062 34.3929 34.4297 30.2468 34.8856 26.6665M10.9537 30.7365C10.3675 30.7365 9.97667 30.8888 9.39046 31.1174M10.9537 30.7365L15.5866 31.1174C14.6455 26.144 14.3198 16.0864 17.5599 12.0753C15.5346 18.3979 15.5547 22.8904 17.4436 29.8224C19.1154 29.5177 23.3188 29.0911 24.1525 29.8224C23.3057 22.6618 23.422 15.2252 25.5063 9.74053C25.9188 14.0064 25.5854 20.4527 30.3402 26.8515C29.4935 24.4647 28.8943 19.112 28.5816 14.968C30.3322 23.5759 32.6059 23.9242 34.8856 26.6665M10.9537 30.7365C10.8706 31.837 10.8359 32.7903 10.8755 33.8161M34.8856 26.6665C35.081 23.4671 35.2133 16.1869 33.5459 11.3116M5.87847 34.2861L10.8755 33.8161M5.87847 34.2861C5.87847 34.2861 6.27674 35.6743 6.40517 36.2019M10.8755 33.8161C10.8966 34.3638 11.0365 35.6743 11.0365 35.6743M6.40517 36.2019C7.85793 36.0223 9.36509 35.7825 11.0365 35.6743M6.40517 36.2019C6.40517 36.2019 6.81641 37.66 7.16802 38.8357M11.0365 35.6743C11.1468 36.6542 11.3249 37.4551 11.5761 38.2967M7.16802 38.8357C9.12546 38.823 9.76725 38.673 11.5761 38.2967M11.5761 38.2967C11.7736 38.9584 12.0938 39.6724 12.3841 40.2261" stroke="#A9C7FF" stroke-width="1.2" stroke-linecap="square"/>
</svg>
